<svg xmlns="http://www.w3.org/2000/svg" width="36" height="33.032" viewBox="0 0 36 33.032"><defs><style>.a{fill:#f6bb92;}.b{fill:#eaeae8;}.c{fill:#246761;}.d{fill:#a8a8a8;}.e{fill:#656666;}.f{fill:#283433;}.g{fill:#48a59d;}.h{fill:#cbcbcb;}</style></defs><g transform="translate(-24.289 -42.745)"><path class="a" d="M293.446,73.722v1l-3,2-2-5Z" transform="translate(-243.157 -26.945)"/><path class="b" d="M299.279,78.049c-.275,0-.92-.737-1-1s.771.152,1,0l3-2c.287-.191-.191-.287,0,0s.287.809,0,1l-3,2C299.177,78.117,299.4,78.049,299.279,78.049Z" transform="translate(-252.99 -29.272)"/><path class="c" d="M156.046,78.722h4a5.46,5.46,0,0,0,3-1l2-2-2-4h0c-1.24,0-2.787.74-4,1h-3a9.488,9.488,0,0,0-4,2Z" transform="translate(-117.757 -26.945)"/><path class="d" d="M333.328,194.369h-5l1-2Z" transform="translate(-280.039 -137.592)"/><path class="a" d="M298.588,137.064l2,2,3,3h5l-1-2h-2l-2-2-2-3Z" transform="translate(-253.299 -85.287)"/><path class="e" d="M38.289,287.51a7.8,7.8,0,0,0,0-1l1-1-1-1h-1a9.835,9.835,0,0,0-1-2v-1l-1-1-1,1c-.562-.274-.385-.892-1-1l-1-1h-1l-1,1a9.705,9.705,0,0,0-2,1v-1l-2,1,1,1a15.7,15.7,0,0,0-2,2h-1v1l1,1a7.652,7.652,0,0,0,0,2l-1,1v1h1a15.7,15.7,0,0,0,2,2l-1,1h2a9.705,9.705,0,0,0,2,1h3c.615-.108.438-.726,1-1h2v-1a9.835,9.835,0,0,0,1-2h1l1-1-1-1A7.8,7.8,0,0,0,38.289,287.51Zm-7,4a4,4,0,0,1,0-8c2.411,0,5,1.589,5,4S33.7,291.51,31.289,291.51Z" transform="translate(0 -218.733)"/><path class="e" d="M314.019,287.51c0-.312-.957-.691-1-1l1-1v-1h-1a9.837,9.837,0,0,0-1-2v-1l-1-1-1,1a9.7,9.7,0,0,0-2-1v-1h-2v1a9.7,9.7,0,0,0-2,1l-1-1-1,1v1a9.837,9.837,0,0,0-1,2h-1l-1,1,1,1a7.644,7.644,0,0,0,0,2l-1,1,1,1h1a9.834,9.834,0,0,0,1,2v1h2a9.706,9.706,0,0,0,2,1h2a9.705,9.705,0,0,0,2-1h2v-1a9.833,9.833,0,0,0,1-2h1v-1l-1-1C313.062,288.2,314.018,287.822,314.019,287.51Zm-7,4c-2.411,0-5-1.589-5-4s2.589-4,5-4a4,4,0,0,1,0,8Z" transform="translate(-253.73 -218.733)"/><g transform="translate(32.372 53.309)"><path class="f" d="M147.293,369.651h-11c-.344,0,0-.656,0-1s-.344-1,0-1h11c.344,0,0,.656,0,1S147.637,369.651,147.293,369.651Z" transform="translate(-135.376 -353.183)"/><path class="f" d="M128.914,193.368c-.258,0-.908.241-1,0s-.192-.827,0-1l7-6-6-7c-.2-.282.718-.8,1-1s.8-.282,1,0l5,8a.881.881,0,0,1,0,1l-7,6C128.8,193.471,129.068,193.368,128.914,193.368Z" transform="translate(-127.998 -177.9)"/><path class="f" d="M259.628,250h7l-1-2h-5Z" transform="translate(-249.711 -242.536)"/></g><path class="g" d="M123.807,109.612a10.352,10.352,0,0,0-2,2c-.221.312.064.623,0,1a3.967,3.967,0,0,0,0,2,3.5,3.5,0,0,0,2,2l6,3v2a7.283,7.283,0,0,0,0,4v2h2l1-9c.064-.481.343-.657,0-1l-5-4Z" transform="translate(-89.518 -61.835)"/><path class="d" d="M318.035,212.833l5,12h3l-6-13c-.24-.585-.386-1.153-1-1a2.243,2.243,0,0,0-1,1A1.145,1.145,0,0,0,318.035,212.833Z" transform="translate(-270.746 -155.055)"/><circle class="h" cx="2" cy="2" r="2" transform="translate(51.289 66.777)"/><circle class="e" cx="1" cy="1" r="1" transform="translate(52.289 67.777)"/><path class="h" d="M224.434,336.146v3l5,1,1-2c.129-.549-.465-.821-1-1l-3-1Z" transform="translate(-184.145 -270.368)"/><ellipse class="h" cx="1.5" cy="2" rx="1.5" ry="2" transform="translate(30.289 66.777)"/><ellipse class="e" cx="0.5" cy="1" rx="0.5" ry="1" transform="translate(31.289 67.777)"/><path class="g" d="M277.759,98.151l-2-2c-.528-.623-1.347-1.49-2-1-.343.258-.955.573-1,1a4.975,4.975,0,0,0,1,2l1,2Z" transform="translate(-229.47 -48.374)"/><path class="g" d="M288.446,44.777l6,2v-1a2.494,2.494,0,0,0-1-2,3.951,3.951,0,0,0-3-1h0C289.249,42.976,288.829,43.627,288.446,44.777Z" transform="translate(-243.157)"/></g></svg>