<svg xmlns="http://www.w3.org/2000/svg" width="25.763" height="35.487" viewBox="0 0 25.763 35.487"><defs><style>.a{fill:#98db7c;}.b{fill:#82d361;}.c{fill:#e0e0e0;}.d{fill:#cecece;}.e{fill:#9e9e9e;}.f{fill:#898989;}</style></defs><g transform="translate(0 0)"><path class="a" d="M104.811,356.227l-5.72-1.978-1.262.129L95.1,362.214a.361.361,0,0,0,.378.477l3.823-.4a.361.361,0,0,1,.29.1l2.749,2.688a.361.361,0,0,0,.593-.139l2.745-7.888Z" transform="translate(-93.353 -329.696)"/><path class="b" d="M142.581,337.442l.555-1.594-7.852-2.67-.553,1.589A14.413,14.413,0,0,0,142.581,337.442Z" transform="translate(-130.254 -310.085)"/><path class="a" d="M264.874,356.227l5.72-1.978,1.262.129,2.728,7.837a.361.361,0,0,1-.378.477l-3.823-.4a.361.361,0,0,0-.29.1l-2.749,2.688a.361.361,0,0,1-.593-.139l-2.746-7.888Z" transform="translate(-250.569 -329.696)"/><path class="b" d="M256.555,337.442,256,335.848l7.852-2.67.553,1.589A14.413,14.413,0,0,1,256.555,337.442Z" transform="translate(-243.118 -310.085)"/><path class="c" d="M83.238,24.913c-12.866,0-12.876-12.466-12.866-12.681a12.882,12.882,0,0,1,25.73-.014C96.114,12.438,96.1,24.913,83.238,24.913Z" transform="translate(-70.356 0)"/><path class="d" d="M83.03,188.716a12.882,12.882,0,0,1-12.865-12.232q-.016.323-.016.649a12.882,12.882,0,1,0,25.763,0q0-.327-.016-.649A12.882,12.882,0,0,1,83.03,188.716Z" transform="translate(-70.148 -164.252)"/><path class="e" d="M120,58.93c-10.148,0-10.141-9.776-10.128-9.991a10.148,10.148,0,0,1,20.255,0C130.139,49.153,130.125,58.93,120,58.93Z" transform="translate(-107.116 -36.706)"/><path class="f" d="M119.736,185.984a10.148,10.148,0,0,1-10.127-9.5c-.014.215-.021.431-.021.649a10.148,10.148,0,0,0,20.3,0c0-.218-.008-.435-.021-.649A10.148,10.148,0,0,1,119.736,185.984Z" transform="translate(-106.854 -164.253)"/><path class="c" d="M203.939,102.564h-5.817c-.7,0-1.249-1.226-1.2-1.507a4.616,4.616,0,0,1,1.011-2.123L202.03,94.1a1.016,1.016,0,0,0,.151-1.079.946.946,0,0,0-.849-.581h-.048a1.382,1.382,0,0,0-1.38,1.38,1.276,1.276,0,0,1-2.551,0,3.936,3.936,0,0,1,3.931-3.932l.134,0a3.5,3.5,0,0,1,3.1,2.1,3.551,3.551,0,0,1-.535,3.761l-4.093,4.837-.044.054h4.1a1.275,1.275,0,0,1,1.1.626C205.15,101.452,204.644,102.564,203.939,102.564Z" transform="translate(-188.137 -83.654)"/><g transform="translate(8.71 17.403)"><path class="d" d="M202.91,251.915h-5.817a1.275,1.275,0,0,1-1.195-.832,4.6,4.6,0,0,0-.081.855,1.276,1.276,0,0,0,1.276,1.276h5.817a1.274,1.274,0,0,0,1.1-1.925A1.274,1.274,0,0,1,202.91,251.915Z" transform="translate(-195.818 -251.083)"/></g></g></svg>