<svg xmlns="http://www.w3.org/2000/svg" width="27.357" height="37.682" viewBox="0 0 27.357 37.682"><defs><style>.a{fill:#0083fd;}.b{fill:#0072fc;}.c{fill:#ff9838;}.d{fill:#ff8709;}.e{fill:#ce7430;}.f{fill:#bc672e;}.g{fill:#ffaa5c;}.h{fill:#ea9957;}</style></defs><g transform="translate(0 0)"><path class="a" d="M105.3,358l-5.648-1.883L98,356.1l-2.9,8.321a.383.383,0,0,0,.4.507l4.06-.425a.383.383,0,0,1,.308.107l2.919,2.854a.383.383,0,0,0,.629-.148l2.915-8.376Z" transform="translate(-93.246 -329.896)"/><path class="b" d="M143.066,337.706l.589-1.692-8.338-2.835-.587,1.687A15.3,15.3,0,0,0,143.066,337.706Z" transform="translate(-129.977 -308.657)"/><path class="a" d="M265.038,358l5.648-1.883,1.656-.009,2.9,8.322a.383.383,0,0,1-.4.507l-4.06-.425a.383.383,0,0,0-.308.107l-2.919,2.854a.383.383,0,0,1-.629-.148l-2.915-8.376Z" transform="translate(-249.738 -329.896)"/><path class="b" d="M256.589,337.706,256,336.013l8.338-2.835.587,1.687A15.3,15.3,0,0,1,256.589,337.706Z" transform="translate(-242.322 -308.657)"/><path class="c" d="M84.034,26.209c-13.661,0-13.673-12.991-13.661-13.22a13.679,13.679,0,0,1,27.323,0C97.706,13.217,97.7,26.209,84.034,26.209Z" transform="translate(-70.355 0)"/><path class="d" d="M83.826,189.474a13.679,13.679,0,0,1-13.661-12.989q-.017.343-.017.689a13.678,13.678,0,0,0,27.357,0q0-.347-.017-.689A13.679,13.679,0,0,1,83.826,189.474Z" transform="translate(-70.148 -163.496)"/><path class="e" d="M131.139,50.216c0,4.614-4.824,10.113-10.776,10.113s-10.776-5.8-10.776-10.113q0-.347.022-.689a10.776,10.776,0,0,1,21.508,0Q131.139,49.868,131.139,50.216Z" transform="translate(-106.685 -36.537)"/><path class="f" d="M120.364,186.571a10.776,10.776,0,0,1-10.753-10.086c-.014.228-.023.458-.023.689a10.776,10.776,0,1,0,21.551,0c0-.232-.008-.461-.023-.689A10.776,10.776,0,0,1,120.364,186.571Z" transform="translate(-106.685 -163.496)"/><path class="g" d="M203.208,103.35a4,4,0,0,1-4.082-3.5c-.026-.173-.034-.543-.034-.543a1.355,1.355,0,0,1,2.616.495,1.5,1.5,0,1,0,2.831-.69s-.1-1.277-1.259-1.277-1.238-1.577-1.238-1.577a1.354,1.354,0,0,1,1.166-.664,1.5,1.5,0,1,0-1.5-1.5,1.355,1.355,0,1,1-2.709,0,4.209,4.209,0,1,1,7.3,2.854,4.2,4.2,0,0,1,1.062,2.165,5.355,5.355,0,0,1-.035.686A4.051,4.051,0,0,1,203.208,103.35Z" transform="translate(-189.516 -83.271)"/><g transform="translate(9.483 12.989)"><path class="h" d="M239.135,177.15a1.353,1.353,0,0,1-1.165-.665,1.353,1.353,0,0,0,1.165,2.044,1.5,1.5,0,0,1,1.33.81,1.5,1.5,0,0,0-1.33-2.189Z" transform="translate(-234.926 -176.485)"/><path class="h" d="M203.207,218.793a4.216,4.216,0,0,1-4.115-3.324,1.349,1.349,0,0,0-.094.494,4.209,4.209,0,1,0,8.36-.689A4.215,4.215,0,0,1,203.207,218.793Z" transform="translate(-198.998 -212.419)"/></g></g></svg>