<svg xmlns="http://www.w3.org/2000/svg" width="25.017" height="35.162" viewBox="0 0 25.017 35.162"><defs><style>.a{fill:#ff4755;}.b{fill:#fc2b3a;}.c{fill:#ffe27a;}.d{fill:#f9cf58;}.e{fill:#ffba57;}.f{fill:#ffac3e;}</style></defs><g transform="translate(-0.313)"><path class="a" d="M99.692,354.7h-2l-3,8c-.086.248.739,1.027,1,1l4-1c.106-.011-.076-.074,0,0l3,3c.187.183-.086.248,0,0l3-8-1-1Z" transform="translate(-93.367 -330.703)"/><path class="b" d="M142.616,337.275v-1l-7-3-1,1A15.358,15.358,0,0,0,142.616,337.275Z" transform="translate(-130.291 -310.275)"/><path class="a" d="M270,354.7h2l2,8c.086.248.261,1.027,0,1l-4-1c-.106-.011.076-.074,0,0l-3,3c-.187.183.086.248,0,0l-3-8,1-1Z" transform="translate(-250.679 -330.703)"/><path class="b" d="M256.549,337.275l-1-1,8-3,1,1A15.358,15.358,0,0,1,256.549,337.275Z" transform="translate(-243.224 -310.275)"/><path class="c" d="M82.681,25c-12.776,0-12.011-12.787-12-13,.335-6.757,5.16-12,12-12a12.884,12.884,0,0,1,13,12C95.692,12.213,95.457,25,82.681,25Z" transform="translate(-70.356 0)"/><path class="d" d="M82.473,188.352c-6.84,0-11.665-5.243-12-12-.011.213,0,.784,0,1,0,7.056,4.944,13,12,13a13.162,13.162,0,0,0,13-13c0-.216.011-.787,0-1A12.884,12.884,0,0,1,82.473,188.352Z" transform="translate(-70.148 -164.352)"/><path class="e" d="M119.465,55.807c-10.044,0-10.013-9.787-10-10,.332-5.258,4.658-10,10-10s9.668,4.742,10,10C129.478,46.02,129.509,55.807,119.465,55.807Z" transform="translate(-107.14 -33.807)"/><path class="f" d="M119.2,186.352c-5.342,0-9.668-4.742-10-10-.013.213,0,.784,0,1a9.955,9.955,0,0,0,10,10c5.559,0,11-4.441,11-10,0-.216-.987-.787-1-1C128.87,181.611,124.544,186.352,119.2,186.352Z" transform="translate(-106.877 -164.352)"/><path class="c" d="M215.09,102.705c-.7,0-1-1.3-1-2h0v-7s-1.094,1.456-2,1c-.706-.355-1-2-1-2l2-2c.228-.385.553-1,1-1h1c.7,0,1,.3,1,1v10h0C216.09,101.4,215.788,102.705,215.09,102.705Z" transform="translate(-201.765 -83.705)"/><g transform="translate(9.539 9.358)"><path class="d" d="M211.7,135.773c-.336.567-1.4,1.282-2,1a4.458,4.458,0,0,1-1-1c-.351.594.415,1.639,1,2,.6.373,1.639.61,2,0v-2C211.7,135.678,211.744,135.691,211.7,135.773Z" transform="translate(-208.909 -136.131)"/><path class="d" d="M247.185,245.859c-.7,0-1-.3-1-1v1c0,.7.3,1,1,1s1-.3,1-1v-1C248.185,245.558,247.883,245.859,247.185,245.859Z" transform="translate(-243.398 -237.217)"/></g></g></svg>