<svg xmlns="http://www.w3.org/2000/svg" width="16" height="18" viewBox="0 0 16 18"><defs><style>.a{fill:#49615f;}</style></defs><g transform="translate(-0.191 0)"><path class="a" d="M319.875,18.441c0,1.337-1.663,2-3,2a1.765,1.765,0,0,1-2-2,1.765,1.765,0,0,1,2-2C318.212,16.441,319.875,17.1,319.875,18.441Zm0,0" transform="translate(-303.684 -15.442)"/><path class="a" d="M301.434,6a3.018,3.018,0,0,1-3-3,3,3,0,0,1,6,0A3.018,3.018,0,0,1,301.434,6Zm0-5a2.109,2.109,0,0,0-2,2,2,2,0,0,0,4,0A2.109,2.109,0,0,0,301.434,1Zm0,0" transform="translate(-288.243 0)"/><path class="a" d="M319.875,359.859c0,1.336-1.663,2-3,2a1.765,1.765,0,0,1-2-2c0-1.337.663-3,2-3A3.528,3.528,0,0,1,319.875,359.859Zm0,0" transform="translate(-303.684 -344.859)"/><path class="a" d="M301.434,347.417a3,3,0,1,1,3-3A3.018,3.018,0,0,1,301.434,347.417Zm0-5a2,2,0,1,0,2,2A2.109,2.109,0,0,0,301.434,342.417Zm0,0" transform="translate(-288.243 -329.418)"/><path class="a" d="M20.633,189.152a1.765,1.765,0,0,1-2,2c-1.337,0-3-.663-3-2s1.663-2,3-2A1.765,1.765,0,0,1,20.633,189.152Zm0,0" transform="translate(-15.442 -180.152)"/><path class="a" d="M3.191,176.71a3,3,0,0,1,0-6,3,3,0,0,1,0,6Zm0-5a2,2,0,0,0,0,4,2,2,0,0,0,0-4Zm0,0" transform="translate(0 -164.711)"/><path class="a" d="M115.548,96.065c-.259,0-.863-.759-1-1-.2-.357-.357-.8,0-1l7-4c.357-.2.8.642,1,1s.357.8,0,1l-7,3C115.432,95.132,115.673,96.065,115.548,96.065Zm0,0" transform="translate(-110.357 -87.065)"/><path class="a" d="M121.57,271.926c-.125,0,.116.066,0,0l-7-4c-.357-.2-.2-.642,0-1s.642-1.2,1-1l7,4c.357.2.2.642,0,1C122.432,271.167,121.829,271.926,121.57,271.926Zm0,0" transform="translate(-110.379 -256.926)"/></g></svg>