<svg xmlns="http://www.w3.org/2000/svg" width="15.245" height="15.128" viewBox="0 0 15.245 15.128"><defs><style>.a{fill:#49615f;stroke:#49615f;}</style></defs><path class="a" d="M14.415,6.072c-.1-.3-.691-.972-1-1h-4l-1-4c-.123-.286-.689-1-1-1s-.878.714-1,1l-2,4h-4c-.309.028.1.705,0,1s-.233.8,0,1l3,2-1,4c-.069.3-.252.818,0,1a3.4,3.4,0,0,0,1,0c.137,0-.123.073,0,0l4-2,4,2c.266.159-.252.182,0,0s1.069-.7,1-1l-1-4,3-2C14.649,6.867,14.511,6.368,14.415,6.072Zm-7,6" transform="translate(0.207 0.428)"/></svg>