<svg xmlns="http://www.w3.org/2000/svg" width="15.245" height="15.172" viewBox="0 0 15.245 15.172"><defs><style>.a{fill:none;stroke:#49615f;}</style></defs><path class="a" d="M14.079,6.072c-.1-.3.309-.972,0-1h-4l-2-4c-.123-.286-.689-1-1-1s-.878.714-1,1l-1,4h-4c-.309.028-.9.705-1,1s-.233.8,0,1l3,2-1,4c-.069.3.748.818,1,1,.136.1-.16,0,0,0a4.552,4.552,0,0,0,1,0l3-2,4,2a1.04,1.04,0,0,0,1,0c.252-.182.069-.7,0-1l-1-4,3-2C14.313,6.867,14.175,6.368,14.079,6.072Zm-7,6" transform="translate(0.543 0.428)"/></svg>