<?xml version="1.0" encoding="utf-8"?>
<!-- Generator: Adobe Illustrator 20.1.0, SVG Export Plug-In . SVG Version: 6.00 Build 0)  -->
<svg version="1.1" id="Layer_1" xmlns="http://www.w3.org/2000/svg" xmlns:xlink="http://www.w3.org/1999/xlink" x="0px" y="0px"
	 viewBox="0 0 1600 800" style="enable-background:new 0 0 1600 800;" xml:space="preserve">
<style type="text/css">
	.st0{fill:#fff;}
	.st1{fill:#29ABE2;}
	.st2{fill:#FFBE3F;}
	.st3{fill:#AC4B89;}
</style>
<g>
	<g>
		<path class="st0" d="M191.6,624.8v-49.2h5.3v44h25.2v5.1L191.6,624.8L191.6,624.8z"/>
		<path class="st0" d="M232.3,600.1c0-16.8,7.6-25.3,22.8-25.3s22.9,8.5,22.9,25.3c0,16.8-7.7,25.3-22.9,25.3
			C239.9,625.4,232.3,616.9,232.3,600.1z M241.8,584.8c-2.9,3.2-4.2,8.4-4.2,15.3s1.4,12.1,4.2,15.3c2.9,3.2,7.3,4.8,13.3,4.8
			c6.1,0,10.5-1.6,13.4-4.8c2.8-3.2,4.2-8.4,4.2-15.3s-1.4-12.1-4.2-15.3c-2.8-3.2-7.3-4.8-13.4-4.8
			C249.1,579.9,244.7,581.5,241.8,584.8z"/>
		<path class="st0" d="M288.2,575.5h5.3l13.1,41.6l13.1-41.6h5.3l12.8,40.9l12.9-40.9h5.3L340,624.8h-4.9L322,584.2l-12.9,40.6h-5.2
			L288.2,575.5z"/>
		<path class="st0" d="M366.2,600.1c0-16.8,7.6-25.3,22.8-25.3c5.3,0,10.2,1,15,2.9v5.1c-4.7-2-9.5-2.9-14.4-2.9
			c-6.3,0-10.8,1.6-13.8,4.8c-2.9,3.2-4.3,8.4-4.3,15.3s1.5,12.1,4.3,15.3c2.9,3.2,7.5,4.8,13.8,4.8c5,0,9.8-1,14.4-2.9v5.1
			c-4.7,1.9-9.6,2.8-14.8,2.8c-0.1,0-0.1,0-0.2,0C373.8,625.4,366.2,616.9,366.2,600.1z"/>
		<path class="st0" d="M414,600.1c0-16.8,7.6-25.3,22.8-25.3s22.9,8.5,22.9,25.3c0,16.8-7.7,25.3-22.9,25.3
			C421.7,625.4,414,616.9,414,600.1z M423.6,584.8c-2.9,3.2-4.2,8.4-4.2,15.3s1.4,12.1,4.2,15.3c2.9,3.2,7.3,4.8,13.3,4.8
			c6.1,0,10.5-1.6,13.4-4.8c2.8-3.2,4.2-8.4,4.2-15.3s-1.4-12.1-4.2-15.3c-2.8-3.2-7.3-4.8-13.4-4.8
			C430.8,579.9,426.4,581.5,423.6,584.8z"/>
		<path class="st0" d="M474.7,624.8v-49.2h15.4c15.4,0,23.1,8.2,23.1,24.6s-7.7,24.6-23.1,24.6L474.7,624.8L474.7,624.8z M480,619.8
			h9.7c6.3,0,10.9-1.6,13.8-4.7c2.9-3.1,4.3-8.1,4.3-14.9c0-6.8-1.5-11.8-4.3-14.9c-2.9-3.1-7.5-4.7-13.8-4.7H480V619.8z"/>
		<path class="st0" d="M527.9,624.8v-49.2H559v5h-25.8v17h22.6v5.1h-22.6v17H559v5L527.9,624.8L527.9,624.8z"/>
		<path class="st0" d="M604.3,624.8v-49.2h16.3c10.9,0,16.3,4.3,16.3,13.1c0,4.2-2,7.6-5.3,10c0.2,0,1.9,0.8,2.9,1.5
			c1,0.7,2.1,1.5,2.8,2.5c0.7,1,1.2,2.1,1.7,3.2c0.6,1.5,0.9,3.1,0.9,5c0,9.3-6,14-17.9,14L604.3,624.8z M609.6,596.9h12.2
			c2.9,0,5.4-0.5,7.2-1.6c1.8-1.1,2.7-3.1,2.7-6.2c0-3.2-0.9-5.4-2.7-6.7c-1.8-1.3-4.4-1.9-8-1.9h-11.5L609.6,596.9L609.6,596.9z
			 M609.6,619.8h12.9c3.7,0,6.7-0.7,8.8-2c2.2-1.3,3.2-3.7,3.2-7.3c0-1.5-0.3-2.9-0.8-3.9c-0.5-1.1-1.2-2-1.9-2.6
			c-0.8-0.6-1.7-1.1-2.9-1.4c-1.2-0.3-2.3-0.5-3.2-0.6c-1-0.1-2.2-0.1-3.5-0.1h-12.7L609.6,619.8L609.6,619.8z"/>
		<path class="st0" d="M652.8,604.5v-29h5.3v29.3c0,10.4,4.9,15.6,14.6,15.6c9.8,0,14.6-5.2,14.6-15.6v-29.3h5.3v29
			c0,6.8-1.8,11.9-5.2,15.4c-3.4,3.5-8.5,5.3-14.8,5.3c-6.5,0-11.4-1.8-14.8-5.3C654.6,616.4,652.8,611.3,652.8,604.5z"/>
		<path class="st0" d="M707,588.6c0-3.8,1.4-7,4.1-9.7c2.8-2.7,7.1-4,12.9-4c4.2,0,8.3,1,12.3,2.9v5.5c-3.6-2.1-7.6-3.1-11.8-3.1
			c-3.9,0-7,0.7-9,2.2c-2.1,1.5-3.1,3.5-3.1,6.2c0,1.7,0.7,3,2.1,4.2c1.4,1.1,3,2,5,2.5c2,0.5,4.1,1.3,6.6,2.1
			c2.4,0.9,4.5,1.8,6.5,2.8c2,1,3.6,2.6,5,4.6c1.4,2.1,2.1,4.6,2.1,7.6c0,4.1-1.6,7.3-4.6,9.6c-3,2.4-7.4,3.5-12.9,3.5
			c-5.4,0-10.2-1.2-14.5-3.4v-5.8c3.9,2.7,8.6,3.9,14.2,3.9c8.4,0,12.5-2.7,12.6-7.9c0-2.2-0.7-4-2.1-5.6c-1.4-1.5-3-2.6-5-3.3
			l-6.5-2.2c-2.4-0.8-4.5-1.6-6.5-2.4c-2-0.8-3.6-2.1-5-3.8C707.7,593.3,707,591.2,707,588.6z"/>
		<path class="st0" d="M754.8,624.8v-49.2h5.3v49.2H754.8z"/>
		<path class="st0" d="M777,624.8v-49.2h6.1l29.4,41.5v-41.5h5.3v49.2h-6l-29.5-41.5v41.5H777z"/>
		<path class="st0" d="M834.8,624.8v-49.2h31.1v5h-25.8v17h22.6v5.1h-22.6v17h25.8v5L834.8,624.8L834.8,624.8z"/>
		<path class="st0" d="M878.9,588.6c0-3.8,1.4-7,4.1-9.7c2.8-2.7,7.1-4,12.9-4c4.2,0,8.3,1,12.3,2.9v5.5c-3.6-2.1-7.6-3.1-11.8-3.1
			c-3.9,0-7,0.7-9,2.2c-2.1,1.5-3.1,3.5-3.1,6.2c0,1.7,0.7,3,2.1,4.2c1.4,1.1,3,2,5,2.5c2,0.5,4.1,1.3,6.6,2.1
			c2.4,0.9,4.5,1.8,6.5,2.8c2,1,3.6,2.6,5,4.6c1.4,2.1,2.1,4.6,2.1,7.6c0,4.1-1.6,7.3-4.6,9.6c-3,2.4-7.4,3.5-12.9,3.5
			c-5.4,0-10.2-1.2-14.5-3.4v-5.8c3.9,2.7,8.6,3.9,14.2,3.9c8.4,0,12.5-2.7,12.6-7.9c0-2.2-0.7-4-2.1-5.6c-1.4-1.5-3-2.6-5-3.3
			l-6.5-2.2c-2.4-0.8-4.5-1.6-6.5-2.4c-2-0.8-3.6-2.1-5-3.8C879.5,593.3,878.9,591.2,878.9,588.6z"/>
		<path class="st0" d="M922.9,588.6c0-3.8,1.4-7,4.1-9.7c2.8-2.7,7.1-4,12.9-4c4.2,0,8.3,1,12.3,2.9v5.5c-3.6-2.1-7.6-3.1-11.8-3.1
			c-3.9,0-7,0.7-9,2.2c-2.1,1.5-3.1,3.5-3.1,6.2c0,1.7,0.7,3,2.1,4.2c1.4,1.1,3,2,5,2.5c2,0.5,4.1,1.3,6.6,2.1
			c2.4,0.9,4.5,1.8,6.5,2.8s3.6,2.6,5,4.6c1.4,2.1,2.1,4.6,2.1,7.6c0,4.1-1.6,7.3-4.6,9.6c-3,2.4-7.4,3.5-12.9,3.5
			c-5.4,0-10.2-1.2-14.5-3.4v-5.8c3.9,2.7,8.6,3.9,14.2,3.9c8.4,0,12.5-2.7,12.6-7.9c0-2.2-0.7-4-2.1-5.6c-1.4-1.5-3-2.6-5-3.3
			l-6.5-2.2c-2.4-0.8-4.5-1.6-6.5-2.4s-3.6-2.1-5-3.8C923.6,593.3,922.9,591.2,922.9,588.6z"/>
		<path class="st0" d="M997.3,588.6c0-3.8,1.4-7,4.1-9.7c2.8-2.7,7.1-4,12.9-4c4.2,0,8.3,1,12.3,2.9v5.5c-3.6-2.1-7.6-3.1-11.8-3.1
			c-3.9,0-7,0.7-9,2.2c-2.1,1.5-3.1,3.5-3.1,6.2c0,1.7,0.7,3,2.1,4.2c1.4,1.1,3,2,5,2.5c2,0.5,4.1,1.3,6.6,2.1
			c2.4,0.9,4.5,1.8,6.5,2.8c2,1,3.6,2.6,5,4.6c1.4,2.1,2.1,4.6,2.1,7.6c0,4.1-1.6,7.3-4.6,9.6c-3,2.4-7.4,3.5-12.9,3.5
			c-5.4,0-10.2-1.2-14.5-3.4v-5.8c3.9,2.7,8.6,3.9,14.2,3.9c8.4,0,12.5-2.7,12.6-7.9c0-2.2-0.7-4-2.1-5.6c-1.4-1.5-3-2.6-5-3.3
			l-6.5-2.2c-2.4-0.8-4.5-1.6-6.5-2.4c-2-0.8-3.6-2.1-5-3.8C998,593.3,997.3,591.2,997.3,588.6z"/>
		<path class="st0" d="M1041.9,600.1c0-16.8,7.6-25.3,22.8-25.3c15.2,0,22.9,8.5,22.9,25.3c0,16.8-7.7,25.3-22.9,25.3
			C1049.4,625.4,1041.9,616.9,1041.9,600.1z M1051.4,584.8c-2.9,3.2-4.2,8.4-4.2,15.3s1.4,12.1,4.2,15.3c2.9,3.2,7.3,4.8,13.3,4.8
			c6.1,0,10.5-1.6,13.4-4.8c2.8-3.2,4.2-8.4,4.2-15.3s-1.4-12.1-4.2-15.3c-2.8-3.2-7.3-4.8-13.4-4.8
			C1058.7,579.9,1054.2,581.5,1051.4,584.8z"/>
		<path class="st0" d="M1102.3,624.8v-49.2h5.3v44h25.2v5.1L1102.3,624.8L1102.3,624.8z"/>
		<path class="st0" d="M1142.3,604.5v-29h5.3v29.3c0,10.4,4.9,15.6,14.6,15.6c9.7,0,14.6-5.2,14.6-15.6v-29.3h5.3v29
			c0,6.8-1.8,11.9-5.2,15.4c-3.4,3.5-8.5,5.3-14.8,5.3c-6.5,0-11.4-1.8-14.8-5.3C1144.1,616.4,1142.3,611.3,1142.3,604.5z"/>
		<path class="st0" d="M1194.8,580.7v-5.1h40v5.1h-17.3v44h-5.3v-44H1194.8z"/>
		<path class="st0" d="M1247.3,624.8v-49.2h5.3v49.2H1247.3z"/>
		<path class="st0" d="M1267.6,600.1c0-16.8,7.6-25.3,22.8-25.3s22.9,8.5,22.9,25.3c0,16.8-7.7,25.3-22.9,25.3
			C1275.2,625.4,1267.6,616.9,1267.6,600.1z M1277.1,584.8c-2.9,3.2-4.2,8.4-4.2,15.3s1.4,12.1,4.2,15.3c2.9,3.2,7.3,4.8,13.3,4.8
			c6.1,0,10.5-1.6,13.4-4.8c2.8-3.2,4.2-8.4,4.2-15.3s-1.4-12.1-4.2-15.3c-2.8-3.2-7.3-4.8-13.4-4.8
			C1284.3,579.9,1279.9,581.5,1277.1,584.8z"/>
		<path class="st0" d="M1328.1,624.8v-49.2h6.1l29.4,41.5v-41.5h5.3v49.2h-6l-29.5-41.5v41.5H1328.1z"/>
		<path class="st0" d="M1382.9,588.6c0-3.8,1.4-7,4.1-9.7c2.8-2.7,7.1-4,12.9-4c4.2,0,8.3,1,12.3,2.9v5.5c-3.6-2.1-7.6-3.1-11.8-3.1
			c-3.9,0-7,0.7-9,2.2c-2.1,1.5-3.1,3.5-3.1,6.2c0,1.7,0.7,3,2.1,4.2c1.4,1.2,3,2,5,2.5c2,0.5,4.1,1.3,6.6,2.1
			c2.4,0.9,4.5,1.8,6.5,2.8s3.6,2.6,5,4.6c1.4,2.1,2.1,4.6,2.1,7.6c0,4.1-1.6,7.3-4.6,9.6c-3,2.4-7.4,3.5-12.9,3.5
			c-5.4,0-10.2-1.2-14.5-3.4v-5.8c3.9,2.7,8.6,3.9,14.2,3.9c8.4,0,12.5-2.7,12.6-7.9c0-2.2-0.7-4-2.1-5.6c-1.4-1.5-3-2.6-5-3.3
			l-6.5-2.2c-2.4-0.8-4.5-1.6-6.5-2.4s-3.6-2.1-5-3.8C1383.6,593.3,1382.9,591.2,1382.9,588.6z"/>
	</g>
	<g>
		<path class="st1" d="M326.7,180.8l-142.1,82l165.5,95.6l165.5-95.6l-142.1-82C359,172.6,341.1,172.6,326.7,180.8z M350.1,318.6
			l-96.5-55.7l86.8-50.1c6-3.4,13.4-3.4,19.3,0l86.8,50.2L350.1,318.6z"/>
		<path class="st2" d="M350.1,358.5l-165.5-95.6v164.1c0,16.7,8.9,32.2,23.4,40.5l142.1,82.1V358.5z M219.1,422.9V322.8l96.5,55.7
			v111.3l-86.8-50.1C222.8,436.1,219.1,429.8,219.1,422.9z"/>
		<path class="st3" d="M515.5,263l-165.5,95.5v191.1l142.1-82c14.5-8.4,23.4-23.8,23.4-40.5V263z M384.5,489.8V378.5l96.4-55.6V423
			c0,7-3.6,13.3-9.6,16.8L384.5,489.8z"/>
		<path class="st0" d="M262.2,347.5c-2.3,18.4,1.2,37.8,11.2,55.1c10,17.3,25,30,42.2,37.2v-61.6L262.2,347.5z"/>
		<path class="st0" d="M384.5,440c3.3-1.4,6.6-3,9.8-4.9c31.7-18.3,47.8-53.3,43.6-87.5l-53.3,30.9L384.5,440z"/>
		<path class="st0" d="M305.7,281.8c-3.2,1.8-6.2,3.8-9.1,6.1l53.4,30.7l53.4-30.9C375.8,267,337.5,263.4,305.7,281.8z"/>
	</g>
	<g>
		<path class="st0" d="M1019.7,228.9c-80.3,0-128.4,62-128.4,132.2s48,132.2,128.4,132.2c80.3,0,128.4-62,128.4-132.2
			S1099.9,228.9,1019.7,228.9z M1019.7,454.2c-61.3,0-86-48.2-86-93s24.7-93,86-93c61.2,0,86,48.2,86,93S1080.8,454.2,1019.7,454.2z
			"/>
		<path class="st0" d="M1332.1,234.9H1223c-10.5,0-19,8.5-19,19c0,10.5,8.5,19,19,19h102.3c29.8,0,45.4,15.5,45.4,45.4v13.3h-102.4
			c-49.7,0-76,29.5-76,76v4.2c0,46.5,26.3,76,76,76h145.1V316.2C1413.4,266.4,1381.8,234.9,1332.1,234.9z M1370.7,449.7h-95.5
			c-26.9,0-40.1-10.3-40.1-40.1s13.3-40.1,40.1-40.1h95.5V449.7z"/>
		<path class="st0" d="M767.7,360.5l80.6-95.1c3.4-4,5-9.1,4.5-14.3c-0.5-5.2-2.9-9.9-6.9-13.3c-3.5-3-8-4.6-12.6-4.6
			c-5.8,0-11.3,2.6-15,7l-75.8,91.3l-75.8-91.3c-3.7-4.5-9.2-7-15-7c-4.6,0-9.1,1.6-12.6,4.6c-4,3.4-6.5,8.1-6.9,13.3
			c-0.5,5.2,1.1,10.3,4.5,14.3l80.6,95.1l-80.6,96.4c-3.4,4-5,9.1-4.5,14.3c0.5,5.2,2.9,9.9,6.9,13.3c3.5,3,8,4.6,12.6,4.6h0
			c5.8,0,11.3-2.6,15-7l75.8-92.7l75.8,92.7c3.7,4.4,9.2,7,15,7h0c4.6,0,9.1-1.6,12.6-4.6c4-3.4,6.5-8.1,6.9-13.3
			c0.5-5.2-1.1-10.3-4.5-14.3L767.7,360.5z"/>
	</g>
</g>
</svg>
